<?xml version="1.0" standalone="no"?>
<!DOCTYPE svg PUBLIC "-//W3C//DTD SVG 20010904//EN"
 "http://www.w3.org/TR/2001/REC-SVG-20010904/DTD/svg10.dtd">
<svg version="1.0" xmlns="http://www.w3.org/2000/svg"
 width="250.000000pt" height="250.000000pt" viewBox="0 0 250.000000 250.000000"
 preserveAspectRatio="xMidYMid meet">
<metadata>
Created by potrace 1.11, written by Peter Selinger 2001-2013
</metadata>
<g transform="translate(0.000000,250.000000) scale(0.100000,-0.100000)"
fill="#000000" stroke="none">
<path d="M602 2358 c-17 -28 -192 -340 -277 -493 -16 -27 -95 -169 -177 -314
l-148 -263 119 -212 c65 -116 128 -228 140 -249 12 -20 29 -52 39 -70 11 -17
83 -147 162 -287 78 -140 149 -262 157 -270 12 -13 82 -15 513 -15 l500 0 0
77 0 78 -456 2 -455 3 -35 63 c-19 35 -50 91 -69 124 -19 32 -35 60 -35 62 0
2 -22 41 -48 87 -27 46 -60 104 -74 129 -14 25 -80 142 -147 261 l-122 217
261 463 c144 255 266 469 271 474 6 6 201 10 542 10 l532 0 69 -120 c37 -66
80 -140 93 -165 14 -25 41 -71 59 -103 19 -32 34 -60 34 -62 0 -1 18 -33 40
-69 22 -36 40 -68 40 -71 0 -2 18 -34 40 -70 22 -36 40 -67 40 -69 0 -1 27
-50 60 -107 33 -57 60 -107 60 -111 0 -4 -95 -175 -211 -379 -116 -204 -209
-372 -207 -374 1 -1 30 -16 64 -33 68 -34 58 -39 107 50 15 26 46 83 70 125
25 43 55 96 67 118 12 22 48 85 80 140 32 55 68 118 80 140 12 22 43 76 68
120 25 44 45 87 45 95 -1 9 -24 54 -51 100 -27 47 -136 238 -242 425 -106 187
-222 393 -259 457 l-66 117 -627 1 -626 0 -20 -32z"/>
<path d="M889 1698 c-2 -24 -3 -59 -1 -78 l3 -35 229 1 c127 1 230 -2 230 -6
0 -4 -26 -41 -58 -81 -125 -158 -267 -365 -369 -534 -54 -90 -60 -106 -61
-157 l-1 -58 375 0 374 0 0 75 c0 53 -4 75 -12 76 -7 0 -127 1 -265 1 l-253 1
22 36 c111 183 273 407 425 589 l69 83 0 62 -1 62 -351 3 -352 2 -3 -42z"/>
<path d="M1783 436 c-36 -16 -53 -43 -53 -83 0 -38 29 -68 90 -94 109 -47 52
-97 -71 -63 -18 5 -32 -35 -19 -55 9 -16 99 -22 148 -9 49 12 72 39 72 83 0
41 -29 70 -96 100 -81 36 -67 80 23 73 46 -3 48 -2 51 25 2 17 -2 27 -10 28
-7 0 -33 2 -58 5 -25 2 -59 -3 -77 -10z"/>
</g>
</svg>
